<?xml version="1.0" standalone="no"?>
<!DOCTYPE svg PUBLIC "-//W3C//DTD SVG 20010904//EN"
 "http://www.w3.org/TR/2001/REC-SVG-20010904/DTD/svg10.dtd">
<svg version="1.0" xmlns="http://www.w3.org/2000/svg"
 width="256.000000pt" height="256.000000pt" viewBox="0 0 256.000000 256.000000"
 preserveAspectRatio="xMidYMid meet">

<g transform="translate(0.000000,256.000000) scale(0.100000,-0.100000)"
fill="#000000" stroke="none">
<path d="M0 1280 l0 -1280 1280 0 1280 0 0 1280 0 1280 -1280 0 -1280 0 0
-1280z m1178 1025 c-1 -14 -8 -25 -15 -25 -16 0 -16 5 -3 31 14 26 20 24 18
-6z m177 -2 l18 -28 -21 19 c-12 11 -22 23 -22 28 0 14 7 9 25 -19z m-545 -18
c0 -8 -61 -37 -67 -32 -3 3 8 12 24 21 29 16 43 19 43 11z m290 -37 c11 -18
20 -44 20 -58 0 -38 22 -73 50 -81 l25 -7 -25 -1 c-14 -1 -64 -10 -112 -20
l-87 -18 -5 23 c-7 26 -57 75 -117 116 -46 31 -37 37 17 12 28 -14 67 -51 115
-111 5 -7 21 -13 35 -13 23 0 25 3 20 26 -4 14 -27 51 -51 82 -24 31 -42 58
-40 61 10 9 52 -40 85 -99 33 -58 50 -69 79 -51 12 8 10 22 -11 90 -14 45 -24
81 -22 81 3 0 13 -15 24 -32z m-385 -18 c-10 -11 -21 -17 -24 -14 -3 3 3 12
13 20 28 20 32 17 11 -6z m870 -20 c8 -16 15 -33 15 -37 -1 -13 -40 41 -40 55
0 20 9 14 25 -18z m-91 -17 c-9 -21 -20 -56 -25 -78 -16 -67 -16 -67 -41 -51
-13 8 -43 20 -68 27 -31 9 -39 14 -25 17 11 2 26 11 33 20 11 14 12 14 12 -1
0 -9 9 -21 21 -27 27 -15 44 0 60 48 12 38 36 82 44 82 3 0 -2 -17 -11 -37z
m-821 -28 c-3 -9 -8 -14 -10 -11 -3 3 -2 9 2 15 9 16 15 13 8 -4z m980 -117
c20 -51 44 -120 53 -153 9 -33 20 -64 24 -70 11 -15 65 -171 90 -261 12 -43
25 -85 28 -94 3 -11 2 -12 -6 -5 -9 8 -108 286 -135 380 -3 11 -24 72 -47 135
-52 143 -61 172 -51 166 4 -3 24 -47 44 -98z m-1046 -44 c-29 -71 -71 -182
-92 -246 -21 -65 -40 -116 -42 -114 -7 6 27 132 57 216 34 92 121 282 127 276
2 -2 -21 -61 -50 -132z m615 36 c52 -25 63 -25 81 1 13 18 19 19 54 10 75 -20
79 -31 99 -284 5 -57 8 -66 20 -56 20 16 19 -14 -1 -35 -9 -9 -15 -34 -15 -67
0 -94 -59 -149 -144 -134 -26 5 -40 3 -52 -10 -17 -16 -44 -16 -86 0 -13 5
-18 2 -18 -9 0 -18 -15 -21 -25 -5 -4 5 -19 8 -33 4 -17 -3 -41 2 -64 14 -21
10 -38 17 -38 14 0 -18 51 -70 96 -99 30 -19 54 -40 54 -47 0 -8 13 -39 29
-70 16 -31 41 -90 56 -131 38 -103 47 -100 59 19 2 28 11 63 19 78 8 16 13 41
11 55 -3 21 5 36 38 69 l43 41 0 -111 c0 -73 7 -139 19 -190 20 -84 17 -107
-12 -107 -36 0 -34 -15 4 -26 34 -9 38 -14 51 -65 8 -30 12 -61 10 -70 -3 -9
10 -32 27 -51 17 -19 44 -54 60 -78 16 -25 51 -65 78 -90 35 -31 50 -53 51
-72 2 -28 22 -45 32 -27 4 5 2 41 -5 80 -10 69 -6 134 10 144 4 2 1 31 -6 62
-17 73 -17 93 -1 93 33 0 107 -137 107 -200 0 -30 9 -64 25 -96 38 -75 33
-184 -8 -168 -9 3 -30 -4 -49 -19 -73 -54 -157 -31 -149 41 1 7 -5 15 -14 18
-22 9 -19 45 5 51 11 3 20 9 20 14 0 12 -17 11 -25 -1 -4 -7 -14 -5 -28 5 -12
8 -28 15 -37 15 -8 0 -26 12 -39 25 -13 14 -28 25 -35 25 -6 0 -5 4 3 9 19 12
5 31 -24 31 -29 0 -43 19 -24 31 11 7 10 13 -8 27 -34 27 -42 109 -14 162 25
47 28 68 8 51 -10 -8 -17 -7 -25 1 -16 16 -41 2 -35 -20 7 -30 -23 -35 -41 -6
-9 13 -22 24 -29 23 -9 0 -9 -2 1 -6 6 -2 12 -10 12 -18 0 -7 7 -18 15 -25 8
-7 15 -23 15 -36 0 -12 11 -53 24 -91 13 -37 29 -92 35 -121 12 -59 15 -171 4
-198 -6 -16 -7 -16 -14 2 -6 14 -7 9 -6 -16 1 -25 -2 -35 -13 -35 -8 0 -21 -4
-28 -9 -21 -13 -113 4 -177 34 -33 15 -82 30 -109 34 -73 11 -96 22 -96 47 0
12 -8 23 -20 26 -11 3 -17 9 -14 14 8 14 -13 11 -28 -4 -18 -18 -91 -38 -100
-29 -5 5 -10 18 -13 30 -2 12 -6 26 -10 31 -3 5 10 25 30 44 19 19 35 39 35
45 0 6 13 18 30 27 36 19 44 19 36 0 -3 -8 -1 -15 4 -15 10 0 60 -44 60 -53 0
-15 49 -57 55 -47 3 5 14 10 24 10 13 0 22 17 36 72 10 40 21 78 24 83 16 27
29 80 25 103 -3 19 -2 23 5 13 7 -11 11 -9 20 8 14 26 6 44 -18 36 -18 -5 -51
39 -51 69 0 14 10 16 67 12 37 -3 62 -1 55 3 -11 6 -10 11 3 25 15 15 15 20 1
59 -8 23 -17 55 -21 71 l-6 30 -22 -25 c-12 -14 -35 -32 -51 -39 -15 -8 -31
-23 -35 -33 -6 -17 -8 -16 -18 5 -26 55 -34 89 -28 117 4 18 1 40 -8 58 -8 15
-19 57 -26 93 -7 36 -17 83 -23 105 -6 22 -14 82 -18 133 -4 50 -9 95 -12 98
-3 3 -15 0 -26 -7 -17 -11 -25 -9 -55 14 -46 35 -55 72 -25 97 32 27 57 27 34
1 -14 -15 -15 -24 -6 -40 12 -23 26 -28 28 -8 1 6 4 24 8 40 4 16 1 33 -6 42
-15 18 -51 20 -68 3 -9 -9 -12 -9 -12 0 0 6 9 16 20 22 21 11 81 -7 94 -29 4
-6 12 -11 18 -11 7 0 9 25 6 78 -6 74 -4 80 23 117 16 21 29 44 29 51 0 19 62
44 113 44 28 0 65 -8 89 -20z m-432 -120 c-14 -4 -56 -8 -95 -8 -56 1 -63 2
-35 8 50 10 163 10 130 0z m705 -70 c3 -5 -1 -10 -9 -10 -9 0 -16 5 -16 10 0
6 4 10 9 10 6 0 13 -4 16 -10z m160 -47 c-11 -2 -30 -9 -42 -15 -17 -8 -25 -7
-38 6 -15 15 -12 16 42 15 32 -1 49 -3 38 -6z m-880 -43 c9 -14 -7 -17 -115
-25 -65 -4 -92 -3 -85 4 22 22 189 39 200 21z m940 -100 c4 -6 -24 -10 -77 -9
-56 0 -76 3 -63 9 28 12 133 12 140 0z m-924 -42 c-53 -15 -236 -47 -241 -42
-10 11 29 23 109 34 47 7 93 13 101 15 8 1 26 3 40 3 20 0 19 -2 -9 -10z m64
-118 c-3 -5 -14 -10 -23 -10 -50 0 -291 -44 -280 -51 7 -5 9 -9 3 -9 -5 0 -16
4 -24 9 -16 11 15 21 139 45 138 28 195 32 185 16z m844 -74 c-2 -2 -51 -6
-109 -9 -61 -3 -92 -2 -75 3 30 8 192 13 184 6z m-804 -25 c-9 -8 -318 -71
-347 -71 -62 0 154 55 287 73 56 8 69 7 60 -2z m-374 -78 c13 -16 12 -17 -3
-4 -10 7 -18 15 -18 17 0 8 8 3 21 -13z m919 -83 c0 -10 5 -42 11 -70 l11 -50
71 -2 72 -2 -73 -3 c-61 -3 -73 -6 -68 -19 3 -9 6 -20 6 -25 0 -5 29 -9 64 -9
36 0 68 -5 71 -10 5 -8 -15 -9 -60 -6 l-66 5 3 -27 c3 -24 6 -26 43 -24 22 1
47 -2 55 -8 11 -7 1 -10 -37 -10 -46 0 -53 -3 -53 -20 0 -17 7 -20 48 -21 l47
-2 -40 -6 c-31 -5 -40 -11 -45 -31 -5 -20 -10 -11 -22 45 -39 169 -60 315 -47
315 5 0 9 -9 9 -20z m-464 -7 c15 -34 65 -218 95 -348 7 -27 14 -56 16 -62 4
-9 -4 -13 -23 -12 -17 1 -22 3 -11 6 19 5 21 13 8 45 -5 13 -12 35 -15 50 l-6
27 -93 -5 c-101 -4 -84 10 26 22 57 7 58 7 52 33 -9 34 -6 33 -56 22 -54 -13
-109 -14 -109 -2 0 9 71 21 121 21 31 0 35 12 20 53 -9 24 -10 24 -73 11 -65
-14 -126 -18 -116 -8 3 3 43 12 89 20 45 8 84 16 86 18 2 2 -2 16 -8 32 -18
45 -28 94 -19 94 4 0 11 -8 16 -17z m-365 -170 c39 -23 45 -47 20 -89 -15 -24
-20 -47 -17 -77 6 -64 7 -65 21 -17 32 108 50 147 73 158 18 8 29 8 43 -1 19
-12 35 -44 31 -60 -1 -5 2 -6 7 -3 19 12 42 -48 52 -137 16 -145 17 -151 7
-173 -10 -22 -48 -50 -48 -35 0 6 5 13 10 16 16 10 -7 44 -38 57 -15 7 -35 19
-45 27 -17 15 -21 14 -43 -12 -31 -36 -42 -28 -42 28 1 59 -16 78 -30 36 -6
-17 -16 -31 -21 -31 -6 0 -11 -6 -11 -14 0 -8 -5 -18 -11 -22 -7 -4 -10 4 -7
22 3 26 0 29 -30 32 -18 2 -30 8 -27 13 10 15 -12 10 -49 -12 -28 -16 -36 -27
-36 -50 0 -35 -3 -36 -45 -3 -37 28 -47 57 -50 143 -2 67 19 96 46 62 16 -19
18 -19 25 -3 4 9 10 40 13 67 6 47 8 50 33 47 14 -1 29 2 33 7 3 6 11 9 18 7
7 -1 8 -1 4 2 -4 2 -3 10 4 18 16 19 75 18 110 -3z m1212 -77 c62 -31 77 -50
97 -131 10 -40 10 -62 0 -109 l-12 -60 -19 40 c-10 21 -18 46 -19 54 0 9 -13
30 -30 48 -16 18 -30 40 -30 49 0 9 -6 24 -14 32 -8 9 -18 28 -21 44 -6 22 -4
27 11 27 15 1 13 4 -8 16 -16 8 -28 17 -28 20 0 3 3 4 8 2 4 -2 33 -16 65 -32z
m112 -16 c31 -19 81 -102 71 -118 -2 -4 2 -16 10 -27 8 -10 14 -15 14 -10 0 5
8 -1 17 -15 11 -15 13 -25 6 -27 -12 -4 11 -110 28 -128 13 -13 11 -99 -3
-113 -22 -22 -58 -14 -68 16 -6 15 -14 34 -18 42 -15 26 -31 112 -36 190 -5
85 -26 163 -52 191 -22 25 -10 24 31 -1z m-1666 -95 c-13 -79 -30 -160 -36
-165 -14 -13 5 158 21 188 10 19 19 32 20 30 2 -1 0 -25 -5 -53z m734 -2 c-7
-2 -19 -2 -25 0 -7 3 -2 5 12 5 14 0 19 -2 13 -5z m532 -13 c-27 -12 -35 -12
-35 0 0 6 12 10 28 9 24 0 25 -1 7 -9z m-143 -32 c-7 -7 -12 -8 -12 -2 0 14
12 26 19 19 2 -3 -1 -11 -7 -17z m-379 -25 c-7 -2 -19 -2 -25 0 -7 3 -2 5 12
5 14 0 19 -2 13 -5z m-503 -43 c8 -5 11 -12 7 -16 -4 -4 5 -17 18 -30 45 -42
24 -49 -24 -8 -42 35 -43 81 -1 54z m565 -32 c-7 -28 -9 -30 -15 -13 -4 11 -2
28 4 37 15 24 19 15 11 -24z m1014 -41 c-1 -36 -2 -38 -9 -17 -12 36 -12 72 0
65 6 -3 10 -25 9 -48z m-1033 -23 c-4 -9 -9 -15 -11 -12 -3 3 -3 13 1 22 4 9
9 15 11 12 3 -3 3 -13 -1 -22z m-903 -114 c-3 -12 -8 -19 -11 -16 -5 6 5 36
12 36 2 0 2 -9 -1 -20z m1317 10 c0 -5 -2 -10 -4 -10 -3 0 -8 5 -11 10 -3 6
-1 10 4 10 6 0 11 -4 11 -10z m-946 -41 c-4 -8 1 -9 16 -4 16 5 21 3 18 -6 -5
-15 -34 -21 -72 -13 l-30 6 25 14 c29 16 53 18 43 3z m-394 -46 c-11 -17 -11
-17 -6 0 3 10 7 26 7 35 1 15 2 15 6 0 2 -10 -1 -25 -7 -35z m1860 -25 c0 -23
-4 -29 -17 -26 -19 3 -28 30 -19 53 9 25 36 5 36 -27z m-1480 12 c12 -8 11
-10 -7 -10 -12 0 -25 5 -28 10 -8 13 15 13 35 0z m1646 -95 c14 -34 20 -114 7
-102 -4 4 -10 29 -13 55 -4 26 -11 55 -15 65 -4 9 -4 17 -1 17 4 0 14 -16 22
-35z"/>
<path d="M1325 2031 c-3 -5 2 -11 10 -15 8 -3 17 -1 20 3 3 5 -2 11 -10 15 -8
3 -17 1 -20 -3z"/>
<path d="M1302 1964 c-19 -13 -21 -19 -11 -30 10 -12 8 -16 -9 -21 -12 -3 -22
-8 -22 -10 0 -15 55 -103 66 -107 22 -8 17 5 -13 36 -31 33 -18 37 21 7 14
-11 26 -15 26 -9 0 7 8 9 20 5 12 -4 26 0 36 10 13 12 14 21 5 47 -6 17 -19
37 -28 45 -17 13 -16 14 10 10 34 -5 35 10 1 23 -37 15 -76 12 -102 -6z m93
-74 c-3 -5 -1 -10 4 -10 6 0 11 -4 11 -10 0 -5 -9 -10 -19 -10 -14 0 -18 5
-14 20 3 11 10 20 15 20 5 0 6 -4 3 -10z"/>
<path d="M1057 1958 c-21 -7 -26 -15 -22 -29 4 -11 2 -19 -4 -19 -6 0 -11 -9
-11 -20 0 -13 7 -20 20 -20 12 0 31 -11 43 -23 42 -45 58 -48 84 -16 14 16 22
33 19 38 -3 5 1 12 10 15 8 3 14 14 12 23 -2 10 3 24 12 30 13 11 13 14 0 23
-19 12 -126 12 -163 -2z m53 -17 c0 -5 -11 -8 -25 -8 -13 0 -22 3 -19 8 3 5
14 9 25 9 10 0 19 -4 19 -9z"/>
<path d="M1274 1746 c-18 -8 -35 -19 -38 -25 -4 -6 -12 -9 -17 -6 -5 4 -9 2
-9 -4 0 -18 36 -31 49 -18 9 9 13 7 17 -11 6 -22 24 -31 24 -12 0 5 8 6 17 3
12 -5 15 -2 10 10 -4 12 1 17 20 19 33 4 38 18 18 43 -16 20 -16 19 -10 -2 5
-18 3 -22 -9 -17 -9 3 -16 12 -16 20 0 17 -16 17 -56 0z"/>
<path d="M1030 1690 c0 -5 5 -10 10 -10 6 0 10 5 10 10 0 6 -4 10 -10 10 -5 0
-10 -4 -10 -10z"/>
<path d="M860 1681 c0 -5 7 -11 15 -15 8 -3 15 -1 15 3 0 5 -7 11 -15 15 -8 3
-15 1 -15 -3z"/>
<path d="M1285 1633 c-39 -9 -125 -47 -125 -56 0 -4 9 -6 19 -2 22 7 61 -13
61 -31 0 -15 24 -24 65 -24 31 0 35 3 40 34 5 23 14 36 28 40 21 6 21 7 -8 26
-30 20 -42 22 -80 13z m21 -46 c4 -4 -15 -7 -42 -7 -31 0 -44 3 -35 9 16 10
66 9 77 -2z"/>
<path d="M1326 1088 c-17 -24 -20 -46 -10 -72 9 -23 19 -20 32 9 25 55 7 105
-22 63z"/>
<path d="M1230 780 c0 -5 5 -10 11 -10 5 0 7 5 4 10 -3 6 -8 10 -11 10 -2 0
-4 -4 -4 -10z"/>
<path d="M1270 681 c-8 -25 -18 -38 -29 -37 -11 1 -16 -8 -17 -29 0 -17 -4
-36 -8 -43 -5 -8 0 -12 13 -12 24 0 27 10 9 28 -9 9 -8 12 5 12 9 0 17 -4 17
-10 0 -5 4 -10 10 -10 9 0 22 41 34 108 8 47 -18 42 -34 -7z"/>
<path d="M1166 648 c-10 -38 -7 -58 9 -58 8 0 15 8 15 18 0 9 3 27 6 40 5 16
2 22 -9 22 -8 0 -17 -10 -21 -22z"/>
<path d="M1326 589 c3 -6 0 -15 -7 -20 -11 -6 -10 -9 4 -15 10 -3 20 -5 22 -2
7 7 -7 48 -17 48 -5 0 -6 -5 -2 -11z"/>
<path d="M1224 538 c-3 -4 6 -8 19 -8 24 0 67 -37 67 -58 0 -13 10 -15 34 -6
23 9 -1 53 -33 61 -14 3 -30 9 -36 13 -13 10 -45 9 -51 -2z"/>
<path d="M2025 790 c3 -5 8 -10 11 -10 2 0 4 5 4 10 0 6 -5 10 -11 10 -5 0 -7
-4 -4 -10z"/>
</g>
</svg>
